<?xml version="1.0" encoding="UTF-8"?>
<svg id="Layer_1" data-name="Layer 1" xmlns="http://www.w3.org/2000/svg" xmlns:xlink="http://www.w3.org/1999/xlink" version="1.1" viewBox="0 0 841.9 841.9">
  <defs>
    <clipPath id="clippath">
      <rect width="841.9" height="841.9" fill="none" stroke-width="0"/>
    </clipPath>
  </defs>
  <g clip-path="url(#clippath)">
    <path d="M279.8,499.4c-32.3-26.7-16.7-1.2-11.8,8.3,17.7,32.9,33.6,62.8,49.5,93.8,12.3,24.1,24.7,48.8,37.7,76,9.3,16.5,20.6,17.3,26.6,16.8,25.9-2.3,46.1-6.7,73-14,6.1-1.7,22.4-4.1,1.3-22.4-35.2-30.7-60-53.1-84.8-74.9-28.1-24.7-51.7-48.8-91.5-83.6M95.8,480.2c-26.2-23.9-15.4,2.1-11.3,13.9,13.8,39.8,31.9,72.5,54.4,105.1,44.9,60.4,99.4,101.8,172.5,95.6,20.3.1,9.8-11.1,1.6-18.2-73.6-63.9-143.4-132.4-217.2-196.3M747.1,781c12.9,14.7,18.4,4.8,19.6-2.9,8.4-53.7,5.4-107.3-27.1-161-6.8-11.2-14.5-19.5-23.6-28.9L284.7,138.9c-19-19.8-53.7-50.3-19.5-4.4,66.8,90.2,126.2,169.9,183.8,246.8,95.9,128.3,186.7,249.2,298.1,399.6M330.9,427.4c54.2,75.7,108.8,152.2,164.7,231,5.8,10,16,14.6,23.7,16.5,6,1.5,11.4.8,17.5.2,17.5-1.6,30.6-3.7,62.7-3.8,10.5,1.2,16.6-1.2,4.9-14-79.9-90.5-133.4-161.6-215.8-256.6C219.3,205.3,161.8,149.1,107.6,89c-23.4-25.9-35.6-38-36.3-35.3-1,3.9,9.1,20.7,44.3,71.4,37.5,54,103.6,146.3,215.2,302.3M713.3,539.2c5,9.4,12.9,5,11.8-1,0-37.3,5-57.4,6.7-82.5.4-5.6-1.4-21.5-13.9-32.4-17.5-17.3-33.4-32.6-48.8-47.2-29.4-27.9-56.9-53-90.3-83.7-9.4-8.9-15.7-7.1-9.5,9,29.7,50.7,52.2,85.1,73,121.5,18.3,32.2,46.5,70,71.1,116.3M719.5,375.1c9.1,13.5,13.7,5.6,14.1-3.3,1.5-36.3-3.6-80.3-33.9-138.1-25.9-49.4-69.8-101.2-142.4-145.9-7.3-4.5-19.8-9.1-11.4,4.3l173.7,283Z" fill="#c91517" fill-rule="evenodd" stroke-width="0"/>
  </g>
</svg>