<?xml version="1.0" encoding="utf-8"?>
<!-- Generator: Adobe Illustrator 26.0.3, SVG Export Plug-In . SVG Version: 6.00 Build 0)  -->
<svg version="1.1" id="Layer_1" xmlns="http://www.w3.org/2000/svg" xmlns:xlink="http://www.w3.org/1999/xlink" x="0px" y="0px"
	 width="1087.5px" height="141px" viewBox="0 0 1087.5 141" style="enable-background:new 0 0 1087.5 141;" xml:space="preserve">
<style type="text/css">
	.st0{enable-background:new    ;}
	.st1{fill:#FFFFFF;}
	.st2{fill:#005BBB;}
	.st3{fill:#FFD500;}
</style>
<g class="st0">
	<path class="st1" d="M166.5,99.9v-56h12.3v22.2h22.7V43.9h12.3v56h-12.3V77.4h-22.7v22.5H166.5z"/>
	<path class="st1" d="M222.5,99.9l24-56.4h11.4l24,56.4H269l-5.1-12.6h-23.7L235,99.9H222.5z M244.6,76.5h14.9L252,58.3L244.6,76.5z
		"/>
	<path class="st1" d="M313.1,100.9c-8.2,0-15-2.8-20.5-8.3s-8.2-12.4-8.2-20.5v-0.2c0-8.1,2.8-15,8.2-20.6s12.5-8.4,21-8.4
		c5,0,9.2,0.7,12.6,2.2s6.6,3.6,9.4,6.4l-7.8,9c-4.6-4.2-9.4-6.3-14.3-6.3c-4.6,0-8.5,1.7-11.6,5.1c-3.1,3.4-4.6,7.5-4.6,12.4v0.2
		c0,4.9,1.5,9.1,4.6,12.5s7,5.1,11.6,5.1c3,0,5.6-0.5,7.8-1.6s4.5-2.7,7-5l7.8,7.9c-3.1,3.3-6.4,5.8-10,7.5
		C322.6,100,318.2,100.9,313.1,100.9z"/>
	<path class="st1" d="M345.9,99.9v-56h12.3v24.5L381,43.9h14.9L373,67.7l23.8,32.2h-14.8l-17.4-23.8l-6.5,6.7v17.1
		C358.2,99.9,345.9,99.9,345.9,99.9z"/>
	<path class="st1" d="M404.9,99.9v-56h12.3v56H404.9z"/>
	<path class="st1" d="M431.2,99.9v-56h11.4l26.2,34.5V43.9H481v56h-10.5l-27.1-35.6v35.6H431.2z"/>
	<path class="st1" d="M521.3,100.9c-8.6,0-15.7-2.7-21.2-8.2c-5.5-5.4-8.2-12.3-8.2-20.6v-0.2c0-8,2.8-14.9,8.4-20.5
		s12.6-8.4,21-8.4c4.8,0,9,0.6,12.3,1.9s6.6,3.2,9.7,5.8l-7.8,9.4c-2.3-2-4.6-3.4-6.8-4.3s-4.8-1.4-7.8-1.4c-4.5,0-8.3,1.7-11.4,5.1
		c-3.1,3.4-4.7,7.5-4.7,12.3v0.2c0,5.1,1.6,9.4,4.8,12.7s7.2,5,12.2,5c4.6,0,8.5-1.1,11.6-3.4v-8h-12.4V67.7h24.3V92
		C538.3,97.9,530.3,100.9,521.3,100.9z"/>
</g>
<g class="st0">
	<path class="st1" d="M599.7,100.3l-20-56.4h6.9l16,46.6l15.4-46.8h5.2l15.4,46.8l16-46.6h6.6l-20,56.4h-5.4l-15.4-45.4l-15.4,45.4
		H599.7z"/>
	<path class="st1" d="M673.1,99.9v-56h6.3v56H673.1z"/>
	<path class="st1" d="M710.6,99.9V49.7h-18.8v-5.8h44v5.8H717v50.2H710.6z"/>
	<path class="st1" d="M747.7,99.9v-56h6.3v24.9h32.3V43.9h6.3v56h-6.3V74.7H754v25.2H747.7z"/>
</g>
<g class="st0">
	<path class="st1" d="M849.4,100.7c-9.2,0-17.1-3-23.8-9l7.3-8.7c5.5,4.5,11.1,6.8,16.7,6.8c2.5,0,4.5-0.5,5.9-1.4s2.2-2.2,2.2-3.9
		v-0.2c0-1.6-0.8-2.9-2.2-3.9s-4.5-2.1-9-3.2c-3.2-0.8-5.8-1.6-7.8-2.4c-2-0.8-3.8-1.8-5.6-3.1c-1.8-1.3-3.1-2.9-3.9-4.8
		c-0.8-1.9-1.2-4.2-1.2-6.9V60c0-5.1,1.8-9.1,5.5-12.2c3.7-3.1,8.4-4.6,14.1-4.6c8,0,14.9,2.4,20.8,7.1l-6.4,9.3
		c-5.3-3.7-10.1-5.5-14.6-5.5c-2.3,0-4.1,0.5-5.3,1.4s-1.9,2.1-1.9,3.5V59c0,1.8,0.8,3.2,2.3,4.1s4.8,2,9.8,3.3
		c6.1,1.6,10.6,3.6,13.4,6.1s4.3,6,4.3,10.7v0.2c0,5.4-1.9,9.7-5.6,12.8C860.6,99.2,855.6,100.7,849.4,100.7z"/>
	<path class="st1" d="M893.5,100.3l-19.1-56.4h13.2l11.6,37.9l12.6-38.1h10.6l12.6,38.1l11.6-37.9h12.9l-19.1,56.4h-10.7l-12.6-36.6
		l-12.6,36.6H893.5z"/>
	<path class="st1" d="M969,99.9v-56h12.3v56H969z"/>
	<path class="st1" d="M995.3,99.9v-56h42.6v11.2h-30.3V67h26.7v11.2h-26.7v21.7H995.3z"/>
	<path class="st1" d="M1060.8,99.9V55.3h-17V43.9h46.4v11.4h-17v44.6H1060.8z"/>
</g>
<rect x="1.8" y="8" class="st2" width="132.2" height="62.9"/>
<rect x="1.8" y="70.4" class="st3" width="132.2" height="62.9"/>
</svg>
