<?xml version="1.0" standalone="no"?>
<!DOCTYPE svg PUBLIC "-//W3C//DTD SVG 20010904//EN"
 "http://www.w3.org/TR/2001/REC-SVG-20010904/DTD/svg10.dtd">
<svg version="1.0" xmlns="http://www.w3.org/2000/svg"
 width="700.000000pt" height="700.000000pt" viewBox="0 0 700.000000 700.000000"
 preserveAspectRatio="xMidYMid meet">
<metadata>
Created by potrace 1.14, written by Peter Selinger 2001-2017
</metadata>
<g transform="translate(0.000000,700.000000) scale(0.100000,-0.100000)"
fill="#000000" stroke="none">
<path d="M590 6543 c0 -20 100 -183 225 -368 126 -186 505 -729 622 -890 23
-33 211 -296 417 -585 206 -289 388 -543 404 -565 16 -22 161 -224 322 -450
313 -438 324 -454 400 -558 28 -37 50 -72 50 -77 0 -4 4 -10 8 -12 5 -1 165
-223 357 -493 191 -269 371 -521 399 -560 28 -38 60 -83 71 -100 10 -16 23
-35 29 -42 6 -6 67 -91 135 -187 68 -97 140 -189 160 -205 20 -15 61 -37 92
-49 65 -24 124 -23 379 4 25 3 122 7 215 9 202 6 209 8 200 43 -3 14 -102 136
-218 272 -117 135 -232 270 -257 300 -25 29 -49 58 -55 64 -10 11 -117 139
-138 166 -12 14 -319 386 -471 570 -38 47 -90 110 -115 140 -25 30 -48 57 -51
60 -3 3 -31 37 -62 75 -31 39 -69 84 -83 100 -14 17 -40 48 -59 70 -184 220
-745 867 -940 1085 -23 25 -71 79 -107 120 -89 102 -315 356 -359 404 -19 21
-39 44 -45 50 -34 38 -193 214 -210 232 -11 11 -36 38 -55 60 -50 56 -317 346
-390 423 -31 33 -94 101 -326 351 -33 36 -110 119 -170 185 -131 144 -255 274
-309 327 -36 34 -65 49 -65 31z"/>
<path d="M4523 6303 c-9 -3 -9 -12 -2 -30 9 -24 380 -634 465 -765 24 -37 44
-69 44 -71 0 -6 218 -360 230 -374 5 -7 10 -14 10 -17 0 -4 188 -313 235 -386
13 -19 102 -165 200 -325 97 -159 192 -314 211 -342 19 -29 34 -55 34 -59 0
-16 65 -97 86 -106 20 -9 28 -8 42 6 15 14 17 39 17 189 -1 197 -6 248 -41
407 -80 356 -262 730 -508 1044 -215 274 -477 510 -808 729 -136 89 -183 111
-215 100z"/>
<path d="M2101 6038 c26 -53 58 -96 651 -893 82 -110 156 -209 164 -220 73
-100 128 -174 144 -195 25 -33 531 -710 980 -1310 195 -261 509 -682 698 -935
190 -253 354 -473 366 -488 11 -16 27 -35 34 -42 6 -8 12 -18 12 -23 0 -6 3
-12 8 -14 4 -1 27 -30 52 -63 24 -33 163 -220 308 -415 146 -195 275 -368 288
-385 12 -16 56 -75 96 -130 69 -95 108 -147 126 -170 4 -5 51 -69 105 -141
115 -156 153 -187 200 -162 26 13 41 57 52 143 16 138 19 186 19 325 0 234
-18 365 -80 561 -37 120 -129 321 -185 405 -29 45 -101 135 -139 174 -24 25
-398 415 -470 490 -77 80 -406 423 -476 496 -27 29 -128 134 -224 234 -96 100
-195 204 -220 229 -74 77 -554 577 -817 851 -61 63 -139 144 -173 180 -34 36
-146 152 -248 259 -103 107 -207 215 -231 240 -24 25 -128 134 -231 241 -103
107 -243 253 -311 324 -326 340 -470 476 -505 476 -12 0 -10 -8 7 -42z"/>
<path d="M4719 4603 c0 -5 -2 -16 -4 -26 -7 -35 23 -93 180 -352 87 -143 164
-271 172 -285 8 -14 22 -37 31 -52 15 -23 53 -85 102 -168 9 -14 49 -81 89
-150 40 -69 88 -149 107 -177 19 -29 34 -55 34 -57 0 -3 13 -24 29 -48 150
-226 348 -546 429 -693 59 -107 80 -130 113 -120 24 8 27 21 34 195 3 80 7
159 10 175 2 17 9 71 14 120 6 50 13 117 17 150 21 188 -3 261 -129 387 -73
72 -414 401 -493 475 -182 169 -270 251 -287 266 -12 10 -48 44 -82 75 -70 66
-222 205 -280 257 -36 31 -84 47 -86 28z"/>
<path d="M659 3075 c-1 -8 -2 -21 -3 -27 -2 -15 55 -182 109 -318 114 -290
326 -648 520 -876 87 -103 254 -265 350 -340 204 -157 469 -267 695 -289 138
-13 326 -3 347 18 28 28 -1 68 -132 182 -44 39 -82 72 -85 75 -3 3 -43 39 -90
80 -46 41 -94 84 -106 95 -11 11 -36 33 -55 49 -37 33 -502 459 -535 491 -11
11 -58 54 -103 95 -46 41 -100 91 -120 110 -30 28 -126 116 -235 215 -6 6 -49
44 -95 85 -47 41 -92 82 -101 90 -14 13 -113 101 -174 153 -12 10 -36 32 -54
48 -45 41 -102 79 -118 79 -8 0 -15 -7 -15 -15z"/>
<path d="M2163 2934 c-5 -15 35 -102 123 -264 25 -47 74 -139 109 -205 35 -66
89 -167 120 -225 30 -58 146 -286 257 -508 208 -415 235 -458 306 -489 40 -17
125 -19 208 -4 32 5 79 13 104 16 136 19 447 99 472 121 40 37 9 86 -134 210
-56 49 -107 94 -113 100 -5 6 -68 62 -140 124 -71 62 -137 120 -146 129 -9 9
-44 41 -79 71 -35 30 -71 62 -80 70 -9 8 -45 40 -79 70 -85 75 -98 86 -240
219 -68 64 -133 124 -144 134 -12 10 -48 44 -82 75 -63 59 -210 193 -280 254
-47 41 -133 101 -158 111 -11 4 -20 1 -24 -9z"/>
</g>
</svg>
